<?xml version="1.0" encoding="UTF-8" standalone="no"?>
<!-- Created with Inkscape (http://www.inkscape.org/) -->

<svg
   width="50.291557mm"
   height="75.55719mm"
   viewBox="0 0 50.291557 75.55719"
   version="1.1"
   id="svg1"
   xml:space="preserve"
   xmlns="http://www.w3.org/2000/svg"
   xmlns:svg="http://www.w3.org/2000/svg"><defs
     id="defs1" /><g
     id="layer1"
     transform="translate(-119.9292,-89.164387)"><g
       id="g1"
       style="fill:#65ce61;fill-opacity:1"><path
         style="fill:#65ce61;fill-opacity:1"
         d="m 127.22001,163.32316 -0.63637,-1.39844 -1.97957,-4.36562 -1.97957,-4.36563 1.33431,-0.13229 1.33431,-0.13229 1.23805,-2.77812 1.23805,-2.77813 h 2.75369 2.75369 l 1.23806,2.77813 1.23805,2.77812 1.3323,0.13229 1.33231,0.13229 -2.57578,5.68855 -2.57577,5.68854 -2.70469,0.0755 -2.70469,0.0755 z m 29.10417,0 -0.63637,-1.39844 -1.97957,-4.36562 -1.97957,-4.36563 1.33431,-0.13229 1.3343,-0.13229 1.23806,-2.77812 1.23805,-2.77813 h 2.75369 2.75369 l 1.23805,2.77813 1.23806,2.77812 1.3323,0.13229 1.3323,0.13229 -2.57577,5.68855 -2.57578,5.68854 -2.70469,0.0755 -2.70469,0.0755 z m -17.47717,-5.30104 0.3596,-0.8599 0.93385,-2.04851 0.93385,-2.04852 -2.6069,-5.75669 -2.60691,-5.75669 h -4.0265 -4.0265 l -1.22198,2.77812 -1.22198,2.77813 -0.0751,-2.84112 -0.0751,-2.84111 3.74506,-8.27139 3.74505,-8.27138 0.24964,-0.47744 0.24964,-0.47744 -1.36266,0.0806 -1.36266,0.0806 -3.94603,8.69877 -3.94604,8.69878 v 2.86543 2.86544 l -1.25677,2.85417 -1.25677,2.85417 -0.0713,-5.76171 -0.0713,-5.76171 5.2508,-11.56709 5.25079,-11.56709 2.64478,-0.13229 2.64479,-0.13229 -2.60576,-5.75687 -2.60575,-5.75686 3.92966,-8.662927 3.92967,-8.662924 h 6.70681 6.7068 l 3.92967,8.662924 3.92966,8.662927 -2.60575,5.75686 -2.60575,5.75687 2.64478,0.13229 2.64478,0.13229 5.25079,11.56709 5.2508,11.56709 -0.0713,5.76171 -0.0713,5.76171 -1.25677,-2.85417 -1.25677,-2.85417 v -2.86544 -2.86543 l -3.94604,-8.69878 -3.94603,-8.69877 -1.36266,-0.0806 -1.36266,-0.0806 0.24964,0.47744 0.24964,0.47744 3.74506,8.27138 3.74505,8.27139 -0.0751,2.84111 -0.0751,2.84112 -1.22198,-2.77813 -1.22198,-2.77812 h -4.02649 -4.0265 l -2.60691,5.75669 -2.60691,5.75669 0.93385,2.04852 0.93386,2.04851 0.35959,0.8599 0.3596,0.8599 h -6.58757 -6.58758 z m 12.84899,-16.66875 2.60566,-5.75469 -2.606,-5.75469 -2.606,-5.75468 h -4.01466 -4.01467 l -2.60751,5.75801 -2.6075,5.75802 2.25551,4.95761 2.25552,4.95761 0.36435,0.86684 0.36435,0.86685 4.00264,-0.0731 4.00264,-0.0731 z m -3.99982,-26.1276 1.23704,-2.77813 1.35089,-0.079 1.35089,-0.079 -1.26781,-2.83139 -1.26781,-2.83139 h -4.02438 -4.02439 l -1.27357,2.84427 -1.27358,2.84427 h 1.31645 1.31644 l 0.93477,2.05052 0.93477,2.05052 0.36548,0.87399 0.36548,0.87398 1.36115,-0.0802 1.31342,0.0397 z"
         id="path1" /></g></g></svg>
